<svg xmlns="http://www.w3.org/2000/svg" version="1.1" xmlns:xlink="http://www.w3.org/1999/xlink" xmlns:svgjs="http://svgjs.dev/svgjs" width="1000" height="345" viewBox="0 0 1000 345"><g transform="matrix(1,0,0,1,-0.6060525510160346,-0.13456845513826465)"><svg viewBox="0 0 396 137" data-background-color="#31c48d" preserveAspectRatio="xMidYMid meet" height="345" width="1000" xmlns="http://www.w3.org/2000/svg" xmlns:xlink="http://www.w3.org/1999/xlink"><g id="tight-bounds" transform="matrix(1,0,0,1,0.2399968102023422,0.05343732856215411)"><svg viewBox="0 0 395.52 136.8928492282853" height="136.8928492282853" width="395.52"><g><svg viewBox="0 0 656.7724169844812 227.31454150372446" height="136.8928492282853" width="395.52"><g transform="matrix(1,0,0,1,261.2524169844813,59.49495806137712)"><svg viewBox="0 0 395.52 108.32462538097022" height="108.32462538097022" width="395.52"><g id="textblocktransform"><svg viewBox="0 0 395.52 108.32462538097022" height="108.32462538097022" width="395.52" id="textblock"><g><svg viewBox="0 0 395.52 71.87913104414856" height="71.87913104414856" width="395.52"><g transform="matrix(1,0,0,1,0,0)"><svg width="395.52" viewBox="2.859999895095825 -37.5 209.00999450683594 37.9900016784668" height="71.87913104414856" data-palette-color="#ffffff"><path d="M14.82-12.5L10.03-12.5 10.03 0 2.86 0 2.86-35.55 14.97-35.55Q20.24-35.55 23.38-32.28 26.51-29 26.51-23.78 26.51-18.55 23.41-15.53 20.31-12.5 14.82-12.5L14.82-12.5ZM10.03-29.57L10.03-18.48 14.97-18.48Q17.02-18.48 18.14-19.82 19.26-21.17 19.26-23.73L19.26-23.73Q19.26-26.39 18.12-27.97 16.97-29.54 15.04-29.57L15.04-29.57 10.03-29.57ZM50.19 0L43.23 0Q42.94-0.61 42.65-2.05L42.65-2.05Q40.79 0.49 37.62 0.49L37.62 0.49Q34.3 0.49 32.11-1.71 29.93-3.91 29.93-7.4L29.93-7.4Q29.93-11.55 32.58-13.82 35.23-16.09 40.21-16.14L40.21-16.14 42.31-16.14 42.31-18.26Q42.31-20.04 41.7-20.78 41.09-21.51 39.91-21.51L39.91-21.51Q37.33-21.51 37.33-18.48L37.33-18.48 30.42-18.48Q30.42-22.14 33.16-24.52 35.91-26.9 40.11-26.9L40.11-26.9Q44.46-26.9 46.84-24.65 49.22-22.39 49.22-18.19L49.22-18.19 49.22-5.76Q49.27-2.34 50.19-0.42L50.19-0.42 50.19 0ZM39.16-4.93L39.16-4.93Q40.31-4.93 41.11-5.4 41.92-5.86 42.31-6.49L42.31-6.49 42.31-11.99 40.65-11.99Q38.89-11.99 37.88-10.86 36.86-9.74 36.86-7.86L36.86-7.86Q36.86-4.93 39.16-4.93ZM67.33-26.59L67.26-19.75 64.96-19.95Q62.13-19.95 61.13-17.46L61.13-17.46 61.13 0 54.19 0 54.19-26.42 60.71-26.42 60.91-23.56Q62.54-26.9 65.42-26.9L65.42-26.9Q66.6-26.9 67.33-26.59L67.33-26.59ZM84.39 0L79.56-10.18 77.7-8.11 77.7 0 70.79 0 70.79-37.5 77.7-37.5 77.7-17.24 78.56-18.51 83.34-26.42 91.57-26.42 83.9-15.53 92.3 0 84.39 0ZM110.07-9.33L110.07-9.33Q110.07-11.5 108.96-12.61 107.85-13.72 104.92-14.92L104.92-14.92Q99.57-16.94 97.23-19.67 94.89-22.39 94.89-26.1L94.89-26.1Q94.89-30.59 98.07-33.31 101.26-36.04 106.17-36.04L106.17-36.04Q109.44-36.04 112-34.66 114.57-33.28 115.94-30.76 117.32-28.25 117.32-25.05L117.32-25.05 110.17-25.05Q110.17-27.54 109.11-28.85 108.05-30.15 106.04-30.15L106.04-30.15Q104.16-30.15 103.12-29.04 102.07-27.93 102.07-26.05L102.07-26.05Q102.07-24.58 103.24-23.4 104.41-22.22 107.39-20.95L107.39-20.95Q112.59-19.07 114.94-16.33 117.3-13.6 117.3-9.38L117.3-9.38Q117.3-4.74 114.35-2.12 111.39 0.49 106.31 0.49L106.31 0.49Q102.87 0.49 100.04-0.93 97.21-2.34 95.61-4.98 94.01-7.62 94.01-11.21L94.01-11.21 101.21-11.21Q101.21-8.13 102.41-6.74 103.6-5.35 106.31-5.35L106.31-5.35Q110.07-5.35 110.07-9.33ZM121.74-26.42L128.21-26.42 128.41-23.97Q130.72-26.9 134.53-26.9L134.53-26.9Q138.49-26.9 140.12-23.34L140.12-23.34Q142.39-26.9 146.59-26.9L146.59-26.9Q153.53-26.9 153.7-17.31L153.7-17.31 153.7 0 146.79 0 146.79-16.87Q146.79-19.17 146.15-20.14 145.52-21.12 144.01-21.12L144.01-21.12Q142.08-21.12 141.13-18.75L141.13-18.75 141.17-17.92 141.17 0 134.26 0 134.26-16.82Q134.26-19.09 133.65-20.1 133.04-21.12 131.48-21.12L131.48-21.12Q129.7-21.12 128.65-19.19L128.65-19.19 128.65 0 121.74 0 121.74-26.42ZM178.31 0L171.35 0Q171.05-0.61 170.76-2.05L170.76-2.05Q168.91 0.49 165.73 0.49L165.73 0.49Q162.41 0.49 160.23-1.71 158.04-3.91 158.04-7.4L158.04-7.4Q158.04-11.55 160.69-13.82 163.34-16.09 168.32-16.14L168.32-16.14 170.42-16.14 170.42-18.26Q170.42-20.04 169.81-20.78 169.2-21.51 168.03-21.51L168.03-21.51Q165.44-21.51 165.44-18.48L165.44-18.48 158.53-18.48Q158.53-22.14 161.28-24.52 164.02-26.9 168.22-26.9L168.22-26.9Q172.57-26.9 174.95-24.65 177.33-22.39 177.33-18.19L177.33-18.19 177.33-5.76Q177.38-2.34 178.31-0.42L178.31-0.42 178.31 0ZM167.27-4.93L167.27-4.93Q168.42-4.93 169.22-5.4 170.03-5.86 170.42-6.49L170.42-6.49 170.42-11.99 168.76-11.99Q167-11.99 165.99-10.86 164.98-9.74 164.98-7.86L164.98-7.86Q164.98-4.93 167.27-4.93ZM195.44-26.59L195.37-19.75 193.07-19.95Q190.24-19.95 189.24-17.46L189.24-17.46 189.24 0 182.31 0 182.31-26.42 188.83-26.42 189.02-23.56Q190.66-26.9 193.54-26.9L193.54-26.9Q194.71-26.9 195.44-26.59L195.44-26.59ZM201.25-32.91L208.16-32.91 208.16-26.42 211.7-26.42 211.7-21.22 208.16-21.22 208.16-8.11Q208.16-6.54 208.59-5.96 209.01-5.37 210.23-5.37L210.23-5.37Q211.23-5.37 211.87-5.54L211.87-5.54 211.82-0.17Q210.06 0.49 208.01 0.49L208.01 0.49Q201.32 0.49 201.25-7.18L201.25-7.18 201.25-21.22 198.2-21.22 198.2-26.42 201.25-26.42 201.25-32.91Z" opacity="1" transform="matrix(1,0,0,1,0,0)" fill="#ffffff" class="undefined-text-0" data-fill-palette-color="primary" id="text-0"></path></svg></g></svg></g><g transform="matrix(1,0,0,1,0,88.84806878452699)"><svg viewBox="0 0 232.20979200000002 19.476556596443228" height="19.476556596443228" width="232.20979200000002"><g transform="matrix(1,0,0,1,0,0)"><svg width="232.20979200000002" viewBox="4.130000114440918 -37.5 571.0299682617188 47.900001525878906" height="19.476556596443228" data-palette-color="#ffffff"><path d="M23.73-19.53L23.73-15.7 8.81-15.7 8.81 0 4.13 0 4.13-35.55 26.15-35.55 26.15-31.69 8.81-31.69 8.81-19.53 23.73-19.53ZM35.96-26.42L35.96 0 31.44 0 31.44-26.42 35.96-26.42ZM31.08-33.42L31.08-33.42Q31.08-34.52 31.75-35.28 32.42-36.04 33.74-36.04 35.06-36.04 35.74-35.28 36.42-34.52 36.42-33.42 36.42-32.32 35.74-31.59 35.06-30.86 33.74-30.86 32.42-30.86 31.75-31.59 31.08-32.32 31.08-33.42ZM43.18-26.42L47.46-26.42 47.6-23.1Q50.63-26.9 55.51-26.9L55.51-26.9Q63.89-26.9 63.96-17.46L63.96-17.46 63.96 0 59.44 0 59.44-17.48Q59.42-20.34 58.14-21.7 56.86-23.07 54.15-23.07L54.15-23.07Q51.95-23.07 50.29-21.9 48.63-20.73 47.7-18.82L47.7-18.82 47.7 0 43.18 0 43.18-26.42ZM69.67-13.09L69.67-13.43Q69.67-19.51 72.55-23.21 75.43-26.9 80.1-26.9L80.1-26.9Q84.73-26.9 87.44-23.73L87.44-23.73 87.44-37.5 91.96-37.5 91.96 0 87.81 0 87.59-2.83Q84.88 0.49 80.05 0.49L80.05 0.49Q75.46 0.49 72.56-3.27 69.67-7.03 69.67-13.09L69.67-13.09ZM74.19-12.92L74.19-12.92Q74.19-8.42 76.04-5.88 77.9-3.34 81.17-3.34L81.17-3.34Q85.47-3.34 87.44-7.2L87.44-7.2 87.44-19.34Q85.42-23.07 81.22-23.07L81.22-23.07Q77.9-23.07 76.04-20.51 74.19-17.94 74.19-12.92ZM125.11-13.92L116.74-13.92 116.74 0 112.05 0 112.05-35.55 125.16-35.55Q130.99-35.55 134.3-32.57 137.61-29.59 137.61-24.68L137.61-24.68Q137.61-19.51 134.37-16.71 131.14-13.92 125.11-13.92L125.11-13.92ZM116.74-31.69L116.74-17.75 125.16-17.75Q128.92-17.75 130.92-19.52 132.92-21.29 132.92-24.63L132.92-24.63Q132.92-27.81 130.92-29.71 128.92-31.62 125.43-31.69L125.43-31.69 116.74-31.69ZM163.66 0L158.92 0Q158.53-0.78 158.29-2.78L158.29-2.78Q155.14 0.49 150.77 0.49L150.77 0.49Q146.86 0.49 144.36-1.72 141.86-3.93 141.86-7.32L141.86-7.32Q141.86-11.45 144.99-13.73 148.13-16.02 153.82-16.02L153.82-16.02 158.21-16.02 158.21-18.09Q158.21-20.46 156.8-21.86 155.38-23.27 152.62-23.27L152.62-23.27Q150.2-23.27 148.57-22.05 146.93-20.83 146.93-19.09L146.93-19.09 142.39-19.09Q142.39-21.07 143.8-22.91 145.2-24.76 147.6-25.83 150.01-26.9 152.89-26.9L152.89-26.9Q157.46-26.9 160.04-24.62 162.63-22.34 162.73-18.33L162.73-18.33 162.73-6.18Q162.73-2.54 163.66-0.39L163.66-0.39 163.66 0ZM151.43-3.44L151.43-3.44Q153.55-3.44 155.45-4.54 157.36-5.64 158.21-7.4L158.21-7.4 158.21-12.82 154.67-12.82Q146.37-12.82 146.37-7.96L146.37-7.96Q146.37-5.83 147.79-4.64 149.2-3.44 151.43-3.44ZM182.58-26.56L182.58-22.36Q181.55-22.53 180.35-22.53L180.35-22.53Q175.91-22.53 174.32-18.75L174.32-18.75 174.32 0 169.81 0 169.81-26.42 174.2-26.42 174.27-23.36Q176.5-26.9 180.57-26.9L180.57-26.9Q181.89-26.9 182.58-26.56L182.58-26.56ZM203.3 0L194.1-12.23 191.26-9.28 191.26 0 186.75 0 186.75-37.5 191.26-37.5 191.26-14.82 193.68-17.72 201.91-26.42 207.4-26.42 197.12-15.38 208.6 0 203.3 0ZM216.97-26.42L216.97 0 212.45 0 212.45-26.42 216.97-26.42ZM212.09-33.42L212.09-33.42Q212.09-34.52 212.76-35.28 213.43-36.04 214.75-36.04 216.07-36.04 216.75-35.28 217.43-34.52 217.43-33.42 217.43-32.32 216.75-31.59 216.07-30.86 214.75-30.86 213.43-30.86 212.76-31.59 212.09-32.32 212.09-33.42ZM224.19-26.42L228.47-26.42 228.61-23.1Q231.64-26.9 236.52-26.9L236.52-26.9Q244.9-26.9 244.97-17.46L244.97-17.46 244.97 0 240.45 0 240.45-17.48Q240.43-20.34 239.15-21.7 237.87-23.07 235.16-23.07L235.16-23.07Q232.96-23.07 231.3-21.9 229.64-20.73 228.71-18.82L228.71-18.82 228.71 0 224.19 0 224.19-26.42ZM250.7-13.43L250.7-13.43Q250.7-19.6 253.56-23.25 256.42-26.9 261.13-26.9L261.13-26.9Q265.96-26.9 268.67-23.49L268.67-23.49 268.89-26.42 273.02-26.42 273.02-0.63Q273.02 4.49 269.98 7.45 266.94 10.4 261.81 10.4L261.81 10.4Q258.96 10.4 256.22 9.18 253.49 7.96 252.05 5.83L252.05 5.83 254.39 3.13Q257.3 6.71 261.5 6.71L261.5 6.71Q264.79 6.71 266.64 4.86 268.48 3 268.48-0.37L268.48-0.37 268.48-2.64Q265.77 0.49 261.08 0.49L261.08 0.49Q256.44 0.49 253.57-3.25 250.7-6.98 250.7-13.43ZM255.25-12.92L255.25-12.92Q255.25-8.45 257.08-5.9 258.91-3.34 262.2-3.34L262.2-3.34Q266.48-3.34 268.48-7.23L268.48-7.23 268.48-19.29Q266.4-23.07 262.25-23.07L262.25-23.07Q258.96-23.07 257.1-20.51 255.25-17.94 255.25-12.92ZM297.11-26.42L297.11 0 292.59 0 292.59-26.42 297.11-26.42ZM292.23-33.42L292.23-33.42Q292.23-34.52 292.9-35.28 293.57-36.04 294.89-36.04 296.21-36.04 296.89-35.28 297.57-34.52 297.57-33.42 297.57-32.32 296.89-31.59 296.21-30.86 294.89-30.86 293.57-30.86 292.9-31.59 292.23-32.32 292.23-33.42ZM304.34-26.42L308.61-26.42 308.75-23.1Q311.78-26.9 316.66-26.9L316.66-26.9Q325.04-26.9 325.11-17.46L325.11-17.46 325.11 0 320.59 0 320.59-17.48Q320.57-20.34 319.29-21.7 318.01-23.07 315.3-23.07L315.3-23.07Q313.1-23.07 311.44-21.9 309.78-20.73 308.85-18.82L308.85-18.82 308.85 0 304.34 0 304.34-26.42ZM346.66-35.55L356.77-6.23 366.93-35.55 372.05-35.55 358.87 0 354.72 0 341.56-35.55 346.66-35.55ZM396.03 0L391.29 0Q390.9-0.78 390.66-2.78L390.66-2.78Q387.51 0.49 383.14 0.49L383.14 0.49Q379.23 0.49 376.73-1.72 374.23-3.93 374.23-7.32L374.23-7.32Q374.23-11.45 377.36-13.73 380.5-16.02 386.19-16.02L386.19-16.02 390.58-16.02 390.58-18.09Q390.58-20.46 389.17-21.86 387.75-23.27 384.99-23.27L384.99-23.27Q382.57-23.27 380.94-22.05 379.3-20.83 379.3-19.09L379.3-19.09 374.76-19.09Q374.76-21.07 376.17-22.91 377.57-24.76 379.97-25.83 382.38-26.9 385.26-26.9L385.26-26.9Q389.83-26.9 392.41-24.62 395-22.34 395.1-18.33L395.1-18.33 395.1-6.18Q395.1-2.54 396.03-0.39L396.03-0.39 396.03 0ZM383.8-3.44L383.8-3.44Q385.92-3.44 387.82-4.54 389.73-5.64 390.58-7.4L390.58-7.4 390.58-12.82 387.04-12.82Q378.74-12.82 378.74-7.96L378.74-7.96Q378.74-5.83 380.16-4.64 381.57-3.44 383.8-3.44ZM402.18-26.42L406.45-26.42 406.6-23.1Q409.62-26.9 414.51-26.9L414.51-26.9Q422.88-26.9 422.95-17.46L422.95-17.46 422.95 0 418.44 0 418.44-17.48Q418.41-20.34 417.13-21.7 415.85-23.07 413.14-23.07L413.14-23.07Q410.94-23.07 409.28-21.9 407.62-20.73 406.69-18.82L406.69-18.82 406.69 0 402.18 0 402.18-26.42ZM440.36-3.2L440.36-3.2Q442.77-3.2 444.58-4.66 446.39-6.13 446.58-8.33L446.58-8.33 450.86-8.33Q450.73-6.05 449.29-4 447.85-1.95 445.45-0.73 443.04 0.49 440.36 0.49L440.36 0.49Q434.96 0.49 431.78-3.11 428.59-6.71 428.59-12.96L428.59-12.96 428.59-13.72Q428.59-17.58 430.01-20.58 431.42-23.58 434.07-25.24 436.72-26.9 440.33-26.9L440.33-26.9Q444.78-26.9 447.72-24.24 450.66-21.58 450.86-17.33L450.86-17.33 446.58-17.33Q446.39-19.9 444.64-21.55 442.9-23.19 440.33-23.19L440.33-23.19Q436.89-23.19 435-20.72 433.11-18.24 433.11-13.55L433.11-13.55 433.11-12.7Q433.11-8.13 434.99-5.66 436.87-3.2 440.36-3.2ZM454.74-13.13L454.74-13.45Q454.74-17.33 456.26-20.43 457.79-23.54 460.51-25.22 463.23-26.9 466.72-26.9L466.72-26.9Q472.12-26.9 475.45-23.17 478.78-19.43 478.78-13.23L478.78-13.23 478.78-12.92Q478.78-9.06 477.31-5.99 475.83-2.93 473.08-1.22 470.34 0.49 466.77 0.49L466.77 0.49Q461.4 0.49 458.07-3.25 454.74-6.98 454.74-13.13L454.74-13.13ZM459.28-12.92L459.28-12.92Q459.28-8.52 461.31-5.86 463.35-3.2 466.77-3.2L466.77-3.2Q470.21-3.2 472.24-5.9 474.27-8.59 474.27-13.45L474.27-13.45Q474.27-17.8 472.2-20.5 470.14-23.19 466.72-23.19L466.72-23.19Q463.38-23.19 461.33-20.53 459.28-17.87 459.28-12.92ZM500.85 0L500.75-2.61Q498.12 0.49 493.01 0.49L493.01 0.49Q488.79 0.49 486.58-1.97 484.37-4.42 484.35-9.23L484.35-9.23 484.35-26.42 488.86-26.42 488.86-9.35Q488.86-3.34 493.75-3.34L493.75-3.34Q498.92-3.34 500.63-7.2L500.63-7.2 500.63-26.42 505.15-26.42 505.15 0 500.85 0ZM514.01-26.42L520.72-6.13 527.26-26.42 531.88-26.42 522.41 0 518.96 0 509.39-26.42 514.01-26.42ZM546.87 0.49L546.87 0.49Q541.5 0.49 538.13-3.04 534.76-6.57 534.76-12.48L534.76-12.48 534.76-13.31Q534.76-17.24 536.26-20.32 537.76-23.41 540.46-25.16 543.16-26.9 546.3-26.9L546.3-26.9Q551.46-26.9 554.31-23.51 557.17-20.12 557.17-13.79L557.17-13.79 557.17-11.91 539.27-11.91Q539.37-8.01 541.56-5.6 543.74-3.2 547.11-3.2L547.11-3.2Q549.5-3.2 551.16-4.17 552.82-5.15 554.07-6.76L554.07-6.76 556.83-4.61Q553.51 0.49 546.87 0.49ZM546.3-23.19L546.3-23.19Q543.57-23.19 541.71-21.2 539.86-19.21 539.42-15.63L539.42-15.63 552.65-15.63 552.65-15.97Q552.46-19.41 550.8-21.3 549.14-23.19 546.3-23.19ZM575.16-26.56L575.16-22.36Q574.13-22.53 572.94-22.53L572.94-22.53Q568.49-22.53 566.91-18.75L566.91-18.75 566.91 0 562.39 0 562.39-26.42 566.79-26.42 566.86-23.36Q569.08-26.9 573.16-26.9L573.16-26.9Q574.48-26.9 575.16-26.56L575.16-26.56Z" opacity="1" transform="matrix(1,0,0,1,0,0)" fill="#ffffff" class="undefined-text-1" data-fill-palette-color="secondary" id="text-1"></path></svg></g></svg></g></svg></g></svg></g><g><svg viewBox="0 0 227.31454150372446 227.31454150372446" height="227.31454150372446" width="227.31454150372446"><g><svg></svg></g><g id="icon-0"><svg viewBox="0 0 227.31454150372446 227.31454150372446" height="227.31454150372446" width="227.31454150372446"><g><path d="M0 113.657c0-62.771 50.886-113.657 113.657-113.657 62.771 0 113.657 50.886 113.658 113.657 0 62.771-50.886 113.657-113.658 113.658-62.771 0-113.657-50.886-113.657-113.658zM113.657 220.832c59.191 0 107.175-47.984 107.175-107.175 0-59.191-47.984-107.175-107.175-107.175-59.191 0-107.175 47.984-107.175 107.175 0 59.191 47.984 107.175 107.175 107.175z" data-fill-palette-color="accent" fill="#ffffff" stroke="transparent"></path></g><g transform="matrix(1,0,0,1,47.89956233573068,47.89956233573068)"><svg viewBox="0 0 131.5154168322631 131.5154168322631" height="131.5154168322631" width="131.5154168322631"><g><svg xmlns="http://www.w3.org/2000/svg" xmlns:xlink="http://www.w3.org/1999/xlink" version="1.1" x="0" y="0" viewBox="5 5 90 90" enable-background="new 0 0 100 100" xml:space="preserve" height="131.5154168322631" width="131.5154168322631" class="icon-s-0" data-fill-palette-color="accent" id="s-0"><g fill="#ffffff" data-fill-palette-color="accent"><path fill="#ffffff" d="M50 5C25.187 5 5 25.187 5 50s20.187 45 45 45 45-20.187 45-45S74.813 5 50 5zM50 6.508c23.982 0 43.492 19.51 43.492 43.491 0 5.213-0.924 10.214-2.613 14.85-2.545 2.12-5.541 3.68-8.742 4.543-0.067-0.216-0.135-0.431-0.196-0.65v-7.924c0-0.002-0.001-0.003-0.001-0.004 0-0.01-0.003-0.019-0.005-0.028-0.001-0.008-0.003-0.013-0.005-0.02-0.001-0.005-0.002-0.01-0.004-0.015-0.003-0.012-0.004-0.026-0.009-0.037-0.007-0.016-0.019-0.028-0.028-0.042-0.01-0.014-0.017-0.029-0.029-0.041-0.007-0.007-0.017-0.011-0.024-0.017-0.003-0.002-0.002-0.007-0.006-0.009-0.004-0.003-0.009-0.001-0.013-0.003-0.014-0.009-0.027-0.021-0.043-0.027-0.002-0.001-0.002-0.002-0.004-0.003-0.016-0.006-0.032-0.005-0.048-0.008-0.016-0.003-0.03-0.009-0.047-0.009-0.002 0-0.003 0.001-0.005 0.001-0.01 0-0.018 0.004-0.028 0.005-0.008 0.001-0.014 0.003-0.022 0.005-0.002 0-0.004 0.001-0.007 0.002-0.015 0.004-0.031 0.004-0.045 0.01-0.012 0.005-0.021 0.015-0.032 0.022-0.017 0.011-0.036 0.021-0.05 0.035-0.007 0.007-0.01 0.016-0.016 0.024-0.002 0.003-0.007 0.003-0.009 0.006-3.086 4.269-7.576 7.355-12.659 8.725-0.067-0.215-0.137-0.429-0.197-0.646v-7.924c0-0.002-0.001-0.003-0.001-0.004 0-0.01-0.003-0.019-0.005-0.028-0.001-0.008-0.003-0.013-0.005-0.02-0.001-0.005-0.002-0.01-0.004-0.015-0.003-0.012-0.004-0.026-0.009-0.037-0.007-0.016-0.019-0.028-0.028-0.042-0.01-0.014-0.017-0.029-0.029-0.041-0.007-0.007-0.017-0.011-0.024-0.017-0.003-0.002-0.002-0.007-0.006-0.009-0.004-0.003-0.009-0.001-0.013-0.003-0.014-0.009-0.027-0.021-0.043-0.027-0.002-0.001-0.002-0.002-0.004-0.003-0.016-0.006-0.032-0.005-0.048-0.008-0.016-0.003-0.03-0.009-0.047-0.009-0.002 0-0.003 0.001-0.005 0.001-0.01 0-0.018 0.004-0.028 0.005-0.008 0.001-0.014 0.003-0.022 0.005-0.002 0-0.004 0.001-0.007 0.002-0.015 0.004-0.031 0.004-0.045 0.01-0.012 0.005-0.021 0.015-0.032 0.022-0.017 0.011-0.036 0.021-0.05 0.035-0.007 0.007-0.01 0.016-0.016 0.024-0.002 0.003-0.007 0.003-0.009 0.006-0.308 0.426-0.641 0.831-0.977 1.234V21.03c0-0.146-0.118-0.264-0.264-0.264h-1.226v-2.88c0-0.002-0.001-0.003-0.001-0.005 0-0.021-0.007-0.04-0.012-0.059-0.004-0.014-0.004-0.028-0.009-0.041-0.006-0.014-0.017-0.025-0.026-0.038-0.01-0.015-0.018-0.032-0.031-0.045-0.008-0.008-0.019-0.012-0.028-0.019-0.019-0.014-0.037-0.029-0.059-0.037-0.001 0-0.002-0.002-0.003-0.002-3.615-1.384-7.561-1.896-11.412-1.485-0.013 0.001-0.024 0.008-0.037 0.012-0.017 0.004-0.034 0.008-0.05 0.016-0.015 0.008-0.028 0.018-0.041 0.028-0.014 0.01-0.027 0.02-0.039 0.032-0.011 0.013-0.019 0.027-0.028 0.041-0.009 0.015-0.018 0.028-0.024 0.044-0.006 0.017-0.008 0.034-0.01 0.052-0.002 0.013-0.008 0.024-0.008 0.038v4.348h-1.051c-0.146 0-0.264 0.118-0.264 0.264v6.544 35.742c-0.943 0.957-1.965 1.827-3.056 2.603-1.24-0.883-2.397-1.89-3.438-3l-0.001-0.001c-0.018-0.019-0.041-0.033-0.063-0.046V43.858c0-0.146-0.118-0.264-0.264-0.264H39.31v-1.742l5.222-2.042c0.001 0 0.002-0.002 0.003-0.002 0.022-0.009 0.04-0.024 0.058-0.038 0.009-0.007 0.02-0.011 0.028-0.019 0.012-0.012 0.02-0.028 0.029-0.042 0.009-0.014 0.021-0.026 0.028-0.041 0.004-0.01 0.004-0.022 0.007-0.032 0.006-0.022 0.013-0.045 0.014-0.069 0-0.001 0.001-0.002 0.001-0.003v-0.939l1.374-1.253c0.001-0.001 0.001-0.003 0.002-0.004 0.047-0.044 0.075-0.104 0.08-0.171 0-0.004 0.002-0.008 0.002-0.012 0-0.003 0.002-0.005 0.002-0.008v-0.94l1.374-1.253c0.001-0.001 0.001-0.003 0.002-0.004 0.047-0.044 0.075-0.104 0.08-0.172 0-0.004 0.002-0.007 0.002-0.011 0-0.003 0.002-0.006 0.002-0.009v-1.056c0-0.146-0.118-0.264-0.264-0.264h-5.419v-2.931c0-0.146-0.118-0.264-0.264-0.264H37.8v-4.509h0.342c0.042 0 0.076-0.034 0.076-0.075s-0.034-0.075-0.076-0.075H37.8v-2.705h0.342c0.042 0 0.076-0.034 0.076-0.075 0-0.042-0.034-0.075-0.076-0.075H37.8v-2.705h0.342c0.042 0 0.076-0.034 0.076-0.075s-0.034-0.075-0.076-0.075H37.8v-4.305c0-0.146-0.118-0.264-0.264-0.264s-0.264 0.118-0.264 0.264v4.305H36.93c-0.042 0-0.075 0.034-0.075 0.075s0.034 0.075 0.075 0.075h0.342v2.705H36.93c-0.042 0-0.075 0.034-0.075 0.075 0 0.042 0.034 0.075 0.075 0.075h0.342v2.705H36.93c-0.042 0-0.075 0.034-0.075 0.075s0.034 0.075 0.075 0.075h0.342v4.509h-3.873c-0.146 0-0.264 0.118-0.264 0.264v2.931h-5.419c-0.146 0-0.264 0.118-0.264 0.264v1.056c0 0.003 0.002 0.006 0.002 0.009 0 0.004 0.002 0.007 0.002 0.011 0.005 0.068 0.034 0.128 0.08 0.172 0.001 0.001 0.001 0.003 0.002 0.004l1.374 1.253v0.94c0 0.003 0.002 0.005 0.002 0.008 0 0.004 0.002 0.008 0.002 0.012 0.005 0.067 0.034 0.128 0.08 0.171 0.001 0.001 0.001 0.003 0.002 0.004l1.374 1.253v0.939c0 0.001 0.001 0.002 0.001 0.003 0 0.024 0.007 0.046 0.014 0.069 0.003 0.011 0.003 0.022 0.007 0.032 0.007 0.015 0.018 0.027 0.028 0.041 0.01 0.014 0.017 0.03 0.029 0.042 0.008 0.008 0.019 0.012 0.028 0.019 0.018 0.014 0.036 0.029 0.058 0.038 0.001 0 0.002 0.002 0.003 0.002l5.222 2.042v1.742h-6.395c-0.146 0-0.264 0.118-0.264 0.264v25.216c-3.709-1.195-7.07-3.309-9.738-6.155 0 0-0.001 0-0.001-0.001-0.047-0.05-0.112-0.08-0.181-0.082-0.001 0-0.002-0.001-0.003-0.001-0.034-0.001-0.069 0.005-0.103 0.018-0.031 0.012-0.058 0.031-0.082 0.052-0.001 0.001-0.002 0-0.003 0.001 0 0 0 0.001-0.001 0.001-0.05 0.048-0.08 0.113-0.083 0.183l0 0.001c-0.001 0.035 0.004 0.07 0.018 0.104 0.833 2.143 0.914 4.517 0.247 6.714-3.431-0.545-6.705-1.87-9.605-3.918C7.602 61.038 6.508 55.646 6.508 50 6.508 26.019 26.019 6.508 50 6.508zM85.149 75.571c-0.235-0.338-0.464-0.681-0.679-1.03 0.981-0.668 1.922-1.392 2.813-2.173C86.619 73.469 85.905 74.535 85.149 75.571zM83.982 77.096H81.94v-6.625c0.515 1.443 1.168 2.824 1.957 4.134 0.002 0.003 0 0.007 0.002 0.009 0.002 0.003 0.006 0.004 0.008 0.007 0.288 0.477 0.596 0.944 0.919 1.402C84.552 76.388 84.266 76.741 83.982 77.096zM81.138 80.32H18.862c-0.844-0.866-1.659-1.761-2.429-2.695h67.134C82.797 78.558 81.982 79.453 81.138 80.32zM77.936 83.299H22.064c-0.929-0.781-1.827-1.596-2.688-2.451h61.248C79.764 81.702 78.865 82.518 77.936 83.299zM67.368 89.862H32.632c-3.586-1.568-6.92-3.605-9.926-6.035h54.588C74.288 86.257 70.954 88.294 67.368 89.862zM47.092 33.997v0.528H27.98v-0.528H47.092zM41.409 30.802v1.96h-7.746v-1.96H41.409zM33.663 32.913h7.746v0.556h-7.746V32.913zM46.675 35.053l-0.881 0.803H29.279l-0.881-0.803H46.675zM29.44 36.385h16.192v0.528H29.44V36.385zM45.215 37.441l-0.881 0.804H30.739l-0.881-0.804H45.215zM30.901 39.3v-0.528h13.271V39.3H30.901zM43.035 39.829l-3.586 1.403 0.407-1.403H43.035zM35.216 39.829l0.407 1.403-3.586-1.403H35.216zM36.289 41.669c0-0.014-0.005-0.027-0.007-0.04-0.002-0.01 0-0.02-0.003-0.03l-0.514-1.77h3.541l-0.513 1.77c-0.003 0.01-0.001 0.02-0.003 0.03-0.002 0.014-0.007 0.026-0.007 0.04 0 0.001-0.001 0.002-0.001 0.003v1.922H36.29v-1.922C36.29 41.671 36.289 41.67 36.289 41.669zM45.441 44.122v1.93h-15.81v-1.93H45.441zM66.622 21.294v0.482H53.056v-0.482H66.622zM54.371 16.662c3.634-0.354 7.343 0.133 10.761 1.412v2.692H54.371V16.662zM72.973 77.096c-0.676-0.815-1.285-1.671-1.834-2.56 4.565-3.106 8.085-7.382 10.273-12.426v14.986H72.973zM59.638 77.096c-0.676-0.815-1.285-1.671-1.834-2.56 4.565-3.106 8.085-7.382 10.273-12.426v14.986H59.638zM46.304 77.096c-0.676-0.815-1.286-1.671-1.835-2.56 4.565-3.106 8.085-7.382 10.273-12.426v14.986H46.304zM26.491 77.096c6.666-2.925 12.005-8.274 14.917-14.946v14.946H26.491zM33.376 46.204v1.285h-1.892v-1.285H33.376zM35.418 46.204v1.285h-1.891v-1.285H35.418zM37.461 46.204v1.285h-1.891v-1.285H37.461zM39.503 46.204v1.285h-1.892v-1.285H39.503zM41.545 46.204v1.285h-1.891v-1.285H41.545zM43.587 46.204v1.285h-1.891v-1.285H43.587zM45.441 46.204v1.285h-1.703v-1.285H45.441zM46.244 67.835c-0.092 0.045-0.182 0.095-0.275 0.139v-3.613C46.259 65.493 46.348 66.672 46.244 67.835zM43.738 68.901v-1.154h1.703v0.474C44.883 68.468 44.317 68.698 43.738 68.901zM40.533 61.851h-0.879v-1.285h1.891v0.026c-0.004 0.002-0.007 0.005-0.011 0.008-0.017 0.011-0.036 0.021-0.05 0.035-0.007 0.007-0.01 0.016-0.016 0.024-0.002 0.003-0.007 0.003-0.009 0.006-0.141 0.194-0.284 0.387-0.431 0.577C40.867 61.449 40.699 61.649 40.533 61.851zM39.242 63.287h-1.63v-1.285h1.892v1.021C39.418 63.113 39.329 63.198 39.242 63.287zM34.786 64.874h0.632v0.513C35.204 65.222 34.995 65.048 34.786 64.874zM34.603 64.723c-0.368-0.312-0.728-0.632-1.075-0.966v-0.319h1.891v1.285H34.603zM45.441 63.287h-1.703v-1.285h1.703V63.287zM43.307 69.032h-1.283c-0.028-0.097-0.061-0.191-0.088-0.289v-0.997h1.651v1.2C43.495 68.978 43.4 69.002 43.307 69.032zM32.699 62.919c0 0-0.001 0-0.002-0.001-0.047-0.05-0.112-0.079-0.181-0.082-0.001 0-0.002-0.001-0.003-0.001-0.034-0.001-0.069 0.005-0.103 0.018-0.031 0.012-0.058 0.031-0.082 0.052-0.001 0.001-0.002 0-0.003 0.001l-0.001 0.001c-0.05 0.048-0.08 0.113-0.083 0.183l0 0.001c-0.001 0.035 0.004 0.07 0.018 0.104 0.012 0.03 0.018 0.062 0.029 0.092h-0.805v-1.285h1.892v1.285h-0.314C32.942 63.164 32.817 63.045 32.699 62.919zM32.339 63.438c0.151 0.42 0.271 0.849 0.366 1.285h-1.22v-1.285H32.339zM43.738 58.979v-1.285h1.703v1.285H43.738zM45.441 59.13v1.285h-1.703V59.13H45.441zM33.527 58.979v-1.285h1.891v1.285H33.527zM35.418 59.13v1.285h-1.891V59.13H35.418zM39.503 54.821v1.285h-1.892v-1.285H39.503zM37.611 54.67v-1.285h1.892v1.285H37.611zM39.654 54.821h1.891v1.285h-1.891V54.821zM39.654 54.67v-1.285h1.891v1.285H39.654zM39.654 53.234v-1.285h1.891v1.285H39.654zM39.503 53.234h-1.892v-1.285h1.892V53.234zM37.461 53.234h-1.891v-1.285h1.891V53.234zM37.461 53.385v1.285h-1.891v-1.285H37.461zM37.461 54.821v1.285h-1.891v-1.285H37.461zM37.461 56.257v1.285h-1.891v-1.285H37.461zM37.611 56.257h1.892v1.285h-1.892V56.257zM39.654 56.257h1.891v1.285h-1.891V56.257zM41.696 56.257h1.891v1.285h-1.891V56.257zM41.696 56.106v-1.285h1.891v1.285H41.696zM41.696 54.67v-1.285h1.891v1.285H41.696zM41.696 53.234v-1.285h1.891v1.285H41.696zM41.696 51.797v-1.285h1.891v1.285H41.696zM41.545 51.797h-1.891v-1.285h1.891V51.797zM39.503 51.797h-1.892v-1.285h1.892V51.797zM37.461 51.797h-1.891v-1.285h1.891V51.797zM35.418 51.797h-1.891v-1.285h1.891V51.797zM35.418 51.948v1.285h-1.891v-1.285H35.418zM35.418 53.385v1.285h-1.891v-1.285H35.418zM35.418 54.821v1.285h-1.891v-1.285H35.418zM35.418 56.257v1.285h-1.891v-1.285H35.418zM35.569 57.693h1.891v1.285h-1.891V57.693zM37.611 57.693h1.892v1.285h-1.892V57.693zM39.654 57.693h1.891v1.285h-1.891V57.693zM41.696 57.693h1.891v1.285h-1.891V57.693zM43.738 57.542v-1.285h1.703v1.285H43.738zM43.738 56.106v-1.285h1.703v1.285H43.738zM43.738 54.67v-1.285h1.703v1.285H43.738zM43.738 53.234v-1.285h1.703v1.285H43.738zM43.738 51.797v-1.285h1.703v1.285H43.738zM43.738 50.361v-1.285h1.703v1.285H43.738zM43.587 50.361h-1.891v-1.285h1.891V50.361zM41.545 50.361h-1.891v-1.285h1.891V50.361zM39.503 50.361h-1.892v-1.285h1.892V50.361zM37.461 50.361h-1.891v-1.285h1.891V50.361zM35.418 50.361h-1.891v-1.285h1.891V50.361zM33.376 50.361h-1.892v-1.285h1.892V50.361zM33.376 50.512v1.285h-1.892v-1.285H33.376zM33.376 51.948v1.285h-1.892v-1.285H33.376zM33.376 53.385v1.285h-1.892v-1.285H33.376zM33.376 54.821v1.285h-1.892v-1.285H33.376zM33.376 56.257v1.285h-1.892v-1.285H33.376zM33.376 57.693v1.285h-1.892v-1.285H33.376zM33.376 59.13v1.285h-1.892V59.13H33.376zM33.376 60.565v1.285h-1.892v-1.285H33.376zM33.527 62.002h1.891v1.285h-1.891V62.002zM33.527 61.851v-1.285h1.891v1.285H33.527zM35.569 60.565h1.891v1.285h-1.891V60.565zM35.569 60.415V59.13h1.891v1.285H35.569zM37.611 59.13h1.892v1.285h-1.892V59.13zM39.654 59.13h1.891v1.285h-1.891V59.13zM41.696 59.13h1.891v1.285h-1.891V59.13zM41.93 60.786c-0.001-0.008-0.003-0.013-0.005-0.02-0.001-0.005-0.002-0.01-0.003-0.015-0.003-0.012-0.004-0.026-0.009-0.037-0.007-0.016-0.019-0.028-0.028-0.042-0.01-0.014-0.017-0.029-0.029-0.041-0.007-0.007-0.017-0.011-0.024-0.017-0.003-0.002-0.002-0.007-0.006-0.009-0.004-0.003-0.009-0.001-0.013-0.003-0.014-0.009-0.027-0.021-0.043-0.027-0.002-0.001-0.002-0.002-0.004-0.003-0.014-0.005-0.028-0.004-0.042-0.007h1.863v1.285h-1.651v-1.032c0-0.002-0.001-0.003-0.001-0.004C41.935 60.805 41.932 60.796 41.93 60.786zM45.441 66.159h-1.703v-1.285h1.703V66.159zM43.587 66.159h-1.651v-1.285h1.651V66.159zM41.936 64.723v-1.285h1.651v1.285H41.936zM41.936 63.287v-1.285h1.651v1.285H41.936zM41.936 67.596V66.31h1.651v1.285H41.936zM43.738 66.31h1.703v1.285h-1.703V66.31zM43.738 64.723v-1.285h1.703v1.285H43.738zM43.738 61.851v-1.285h1.703v1.285H43.738zM45.441 48.925h-1.703V47.64h1.703V48.925zM43.587 48.925h-1.891V47.64h1.891V48.925zM41.545 48.925h-1.891V47.64h1.891V48.925zM39.503 48.925h-1.892V47.64h1.892V48.925zM37.461 48.925h-1.891V47.64h1.891V48.925zM35.418 48.925h-1.891V47.64h1.891V48.925zM33.376 48.925h-1.892V47.64h1.892V48.925zM31.334 48.925h-1.703V47.64h1.703V48.925zM31.334 49.076v1.285h-1.703v-1.285H31.334zM31.334 50.512v1.285h-1.703v-1.285H31.334zM31.334 51.948v1.285h-1.703v-1.285H31.334zM31.334 53.385v1.285h-1.703v-1.285H31.334zM31.334 54.821v1.285h-1.703v-1.285H31.334zM31.334 56.257v1.285h-1.703v-1.285H31.334zM31.334 57.693v1.285h-1.703v-1.285H31.334zM31.334 59.13v1.285h-1.703V59.13H31.334zM31.334 60.565v1.285h-1.703v-1.285H31.334zM31.334 62.002v1.285h-1.703v-1.285H31.334zM31.334 63.438v1.285h-1.703v-1.285H31.334zM31.334 64.874v1.285h-1.703v-1.285H31.334zM31.334 66.31v1.285h-1.703V66.31H31.334zM31.485 66.31h1.438c0.026 0.429 0.026 0.857-0.002 1.285h-1.436V66.31zM31.485 66.159v-1.285h1.25c0.086 0.425 0.145 0.853 0.177 1.285H31.485zM33.376 63.438v0.166c-0.056-0.055-0.109-0.111-0.164-0.166H33.376zM35.569 63.438h1.891v1.285h-1.891V63.438zM35.569 63.287v-1.285h1.891v1.285H35.569zM37.611 61.851v-1.285h1.892v1.285H37.611zM42.07 69.183h0.742c-0.226 0.069-0.45 0.145-0.679 0.207C42.112 69.321 42.091 69.252 42.07 69.183zM31.334 47.489h-1.703v-1.285h1.703V47.489zM30.038 69.032h-0.407v-1.285h1.703v0.817C30.908 68.733 30.476 68.888 30.038 69.032zM31.485 67.747h1.429c-0.003 0.039-0.002 0.079-0.005 0.118-0.467 0.227-0.941 0.44-1.424 0.636V67.747zM33.095 64.071c0.813 0.789 1.686 1.516 2.604 2.18-0.725 0.491-1.475 0.942-2.251 1.345C33.522 66.411 33.408 65.217 33.095 64.071zM36.162 65.937c-0.2-0.142-0.397-0.289-0.592-0.438v-0.625h1.891v0.055C37.038 65.279 36.607 65.619 36.162 65.937zM37.708 64.723h-0.097v-1.285h1.481C38.647 63.887 38.186 64.316 37.708 64.723zM39.654 62.002h0.756c-0.246 0.293-0.498 0.578-0.756 0.857V62.002zM41.936 70.469c0.856 2.402 2.094 4.623 3.694 6.627h-3.694V70.469zM54.73 21.927v1.536h-0.856v-1.536H54.73zM55.737 21.927v1.536h-0.856v-1.536H55.737zM56.743 21.927v1.536h-0.856v-1.536H56.743zM57.75 21.927v1.536h-0.856v-1.536H57.75zM58.757 21.927v1.536h-0.856v-1.536H58.757zM59.764 21.927v1.536h-0.856v-1.536H59.764zM60.77 21.927v1.536h-0.856v-1.536H60.77zM61.777 21.927v1.536h-0.856v-1.536H61.777zM62.784 21.927v1.536h-0.856v-1.536H62.784zM63.791 21.927v1.536h-0.856v-1.536H63.791zM64.797 21.927v1.536h-0.856v-1.536H64.797zM65.804 21.927v1.536h-0.856v-1.536H65.804zM66.622 21.927v1.536h-0.667v-1.536H66.622zM66.622 62.512c-0.216 0.242-0.441 0.475-0.667 0.707v-0.809h0.667V62.512zM63.444 65.443h-0.509v-1.347h0.856v1.088C63.677 65.274 63.558 65.356 63.444 65.443zM56.728 69.005h-0.841V67.47h0.856v1.531C56.738 69.003 56.733 69.004 56.728 69.005zM55.265 60.786c-0.001-0.008-0.003-0.013-0.005-0.02-0.001-0.005-0.002-0.01-0.003-0.015-0.003-0.009-0.002-0.02-0.006-0.028h0.485v1.536h-0.466v-1.439c0-0.002-0.001-0.003-0.001-0.004C55.27 60.805 55.266 60.796 55.265 60.786zM53.874 25.301h0.856v1.536h-0.856V25.301zM53.723 26.836h-0.667v-1.536h0.667V26.836zM61.046 63.945h-0.125v-1.536h0.856v1.536H61.046zM59.367 62.919c-0.047-0.05-0.113-0.08-0.181-0.082-0.001 0-0.002 0-0.003 0-0.034-0.001-0.069 0.005-0.103 0.018-0.031 0.012-0.058 0.031-0.082 0.052-0.001 0.001-0.002 0-0.003 0.001 0 0 0 0.001 0 0.001-0.051 0.048-0.081 0.114-0.083 0.183l0 0.001c-0.001 0.035 0.004 0.07 0.018 0.104 0.095 0.245 0.165 0.498 0.241 0.75h-0.263v-1.536h0.856v0.91c-0.132-0.134-0.267-0.263-0.395-0.4C59.368 62.919 59.368 62.919 59.367 62.919zM55.271 65.443v-1.347h0.466v1.347H55.271zM55.737 65.972v1.347h-0.466v-1.347H55.737zM57.901 60.572v-1.536h0.856v1.536H57.901zM58.757 60.723v1.536h-0.856v-1.536H58.757zM59.915 55.511v-1.536h0.856v1.536H59.915zM60.77 55.662v1.536h-0.856v-1.536H60.77zM60.921 50.451v-1.536h0.856v1.536H60.921zM61.777 50.602v1.536h-0.856v-1.536H61.777zM59.915 46.889v-1.347h0.856v1.347H59.915zM60.77 47.417v1.347h-0.856v-1.347H60.77zM59.915 45.391v-1.536h0.856v1.536H59.915zM59.915 43.704v-1.536h0.856v1.536H59.915zM59.915 42.017v-1.536h0.856v1.536H59.915zM59.915 40.33v-1.536h0.856v1.536H59.915zM59.915 38.643v-1.536h0.856v1.536H59.915zM59.915 36.957v-1.536h0.856v1.536H59.915zM60.921 35.421h0.856v1.536h-0.856V35.421zM61.928 35.421h0.856v1.536h-0.856V35.421zM61.928 35.27v-1.536h0.856v1.536H61.928zM61.777 35.27h-0.856v-1.536h0.856V35.27zM60.77 35.27h-0.856v-1.536h0.856V35.27zM59.764 35.27h-0.856v-1.536h0.856V35.27zM59.764 35.421v1.536h-0.856v-1.536H59.764zM59.764 37.108v1.536h-0.856v-1.536H59.764zM59.764 38.794v1.536h-0.856v-1.536H59.764zM59.764 40.481v1.536h-0.856v-1.536H59.764zM59.764 42.168v1.536h-0.856v-1.536H59.764zM59.764 43.855v1.536h-0.856v-1.536H59.764zM59.764 45.542v1.347h-0.856v-1.347H59.764zM59.764 47.417v1.347h-0.856v-1.347H59.764zM59.764 48.915v1.536h-0.856v-1.536H59.764zM59.915 48.915h0.856v1.536h-0.856V48.915zM60.921 48.764v-1.347h0.856v1.347H60.921zM60.921 46.889v-1.347h0.856v1.347H60.921zM60.921 45.391v-1.536h0.856v1.536H60.921zM60.921 43.704v-1.536h0.856v1.536H60.921zM60.921 42.017v-1.536h0.856v1.536H60.921zM60.921 40.33v-1.536h0.856v1.536H60.921zM60.921 38.643v-1.536h0.856v1.536H60.921zM61.928 37.108h0.856v1.536h-0.856V37.108zM62.935 37.108h0.856v1.536h-0.856V37.108zM62.935 36.957v-1.536h0.856v1.536H62.935zM62.935 35.27v-1.536h0.856v1.536H62.935zM62.935 33.583v-1.536h0.856v1.536H62.935zM62.784 33.583h-0.856v-1.536h0.856V33.583zM61.777 33.583h-0.856v-1.536h0.856V33.583zM60.77 33.583h-0.856v-1.536h0.856V33.583zM59.764 33.583h-0.856v-1.536h0.856V33.583zM58.757 33.583h-0.856v-1.536h0.856V33.583zM58.757 33.734v1.536h-0.856v-1.536H58.757zM58.757 35.421v1.536h-0.856v-1.536H58.757zM57.75 36.957h-0.856v-1.536h0.856V36.957zM56.743 36.957h-0.856v-1.536h0.856V36.957zM56.743 37.108v1.536h-0.856v-1.536H56.743zM56.894 37.108h0.856v1.536h-0.856V37.108zM57.901 37.108h0.856v1.536h-0.856V37.108zM58.757 38.794v1.536h-0.856v-1.536H58.757zM58.757 40.481v1.536h-0.856v-1.536H58.757zM58.757 42.168v1.536h-0.856v-1.536H58.757zM58.757 43.855v1.536h-0.856v-1.536H58.757zM58.757 45.542v1.347h-0.856v-1.347H58.757zM58.757 47.417v1.347h-0.856v-1.347H58.757zM58.757 48.915v1.536h-0.856v-1.536H58.757zM58.757 50.602v1.536h-0.856v-1.536H58.757zM58.908 50.602h0.856v1.536h-0.856V50.602zM59.915 50.602h0.856v1.536h-0.856V50.602zM60.77 52.289v1.536h-0.856v-1.536H60.77zM60.921 53.975h0.856v1.536h-0.856V53.975zM60.921 53.824v-1.536h0.856v1.536H60.921zM61.928 52.289h0.856v1.536h-0.856V52.289zM61.928 52.138v-1.536h0.856v1.536H61.928zM61.928 50.451v-1.536h0.856v1.536H61.928zM61.928 48.764v-1.347h0.856v1.347H61.928zM61.928 46.889v-1.347h0.856v1.347H61.928zM61.928 45.391v-1.536h0.856v1.536H61.928zM61.928 43.704v-1.536h0.856v1.536H61.928zM61.928 42.017v-1.536h0.856v1.536H61.928zM61.928 40.33v-1.536h0.856v1.536H61.928zM62.935 38.794h0.856v1.536h-0.856V38.794zM63.942 38.794h0.856v1.536h-0.856V38.794zM63.942 38.643v-1.536h0.856v1.536H63.942zM63.942 36.957v-1.536h0.856v1.536H63.942zM63.942 35.27v-1.536h0.856v1.536H63.942zM63.942 33.583v-1.536h0.856v1.536H63.942zM63.942 31.896v-1.536h0.856v1.536H63.942zM63.791 31.896h-0.856v-1.536h0.856V31.896zM62.784 31.896h-0.856v-1.536h0.856V31.896zM61.777 31.896h-0.856v-1.536h0.856V31.896zM60.77 31.896h-0.856v-1.536h0.856V31.896zM59.764 31.896h-0.856v-1.536h0.856V31.896zM58.757 31.896h-0.856v-1.536h0.856V31.896zM57.75 31.896h-0.856v-1.536h0.856V31.896zM57.75 32.047v1.536h-0.856v-1.536H57.75zM57.75 33.734v1.536h-0.856v-1.536H57.75zM56.743 35.27h-0.856v-1.536h0.856V35.27zM55.737 35.27h-0.856v-1.536h0.856V35.27zM55.737 35.421v1.536h-0.856v-1.536H55.737zM55.737 37.108v1.536h-0.856v-1.536H55.737zM55.737 38.794v1.536h-0.856v-1.536H55.737zM55.888 38.794h0.856v1.536h-0.856V38.794zM56.894 38.794h0.856v1.536h-0.856V38.794zM57.75 40.481v1.536h-0.856v-1.536H57.75zM57.75 42.168v1.536h-0.856v-1.536H57.75zM57.75 43.855v1.536h-0.856v-1.536H57.75zM57.75 45.542v1.347h-0.856v-1.347H57.75zM57.75 47.417v1.347h-0.856v-1.347H57.75zM57.75 48.915v1.536h-0.856v-1.536H57.75zM57.75 50.602v1.536h-0.856v-1.536H57.75zM57.75 52.289v1.536h-0.856v-1.536H57.75zM57.901 52.289h0.856v1.536h-0.856V52.289zM58.908 52.289h0.856v1.536h-0.856V52.289zM59.764 53.975v1.536h-0.856v-1.536H59.764zM59.764 55.662v1.536h-0.856v-1.536H59.764zM59.764 57.349v1.536h-0.856v-1.536H59.764zM59.915 57.349h0.856v1.536h-0.856V57.349zM60.921 57.349h0.856v1.536h-0.856V57.349zM60.921 57.198v-1.536h0.856v1.536H60.921zM61.928 55.662h0.856v1.536h-0.856V55.662zM61.928 55.511v-1.536h0.856v1.536H61.928zM62.935 53.975h0.856v1.536h-0.856V53.975zM63.942 53.975h0.856v1.536h-0.856V53.975zM63.942 53.824v-1.536h0.856v1.536H63.942zM63.791 53.824h-0.856v-1.536h0.856V53.824zM62.935 52.138v-1.536h0.856v1.536H62.935zM62.935 50.451v-1.536h0.856v1.536H62.935zM62.935 48.764v-1.347h0.856v1.347H62.935zM62.935 46.889v-1.347h0.856v1.347H62.935zM62.935 45.391v-1.536h0.856v1.536H62.935zM62.935 43.704v-1.536h0.856v1.536H62.935zM62.935 42.017v-1.536h0.856v1.536H62.935zM63.942 40.481h0.856v1.536h-0.856V40.481zM64.948 40.481h0.856v1.536h-0.856V40.481zM64.948 40.33v-1.536h0.856v1.536H64.948zM64.948 38.643v-1.536h0.856v1.536H64.948zM64.948 36.957v-1.536h0.856v1.536H64.948zM64.948 35.27v-1.536h0.856v1.536H64.948zM64.948 33.583v-1.536h0.856v1.536H64.948zM64.948 31.896v-1.536h0.856v1.536H64.948zM64.948 30.21v-1.536h0.856v1.536H64.948zM64.797 30.21h-0.856v-1.536h0.856V30.21zM63.791 30.21h-0.856v-1.536h0.856V30.21zM62.784 30.21h-0.856v-1.536h0.856V30.21zM61.777 30.21h-0.856v-1.536h0.856V30.21zM60.77 30.21h-0.856v-1.536h0.856V30.21zM59.764 30.21h-0.856v-1.536h0.856V30.21zM58.757 30.21h-0.856v-1.536h0.856V30.21zM57.75 30.21h-0.856v-1.536h0.856V30.21zM56.743 30.21h-0.856v-1.536h0.856V30.21zM56.743 30.361v1.536h-0.856v-1.536H56.743zM56.743 32.047v1.536h-0.856v-1.536H56.743zM55.737 33.583h-0.856v-1.536h0.856V33.583zM54.73 33.583h-0.856v-1.536h0.856V33.583zM54.73 33.734v1.536h-0.856v-1.536H54.73zM54.73 35.421v1.536h-0.856v-1.536H54.73zM54.73 37.108v1.536h-0.856v-1.536H54.73zM54.73 38.794v1.536h-0.856v-1.536H54.73zM54.73 40.481v1.536h-0.856v-1.536H54.73zM54.881 40.481h0.856v1.536h-0.856V40.481zM55.888 40.481h0.856v1.536h-0.856V40.481zM56.743 42.168v1.536h-0.856v-1.536H56.743zM56.743 43.855v1.536h-0.856v-1.536H56.743zM56.743 45.542v1.347h-0.856v-1.347H56.743zM56.743 47.417v1.347h-0.856v-1.347H56.743zM56.743 48.915v1.536h-0.856v-1.536H56.743zM56.743 50.602v1.536h-0.856v-1.536H56.743zM56.743 52.289v1.536h-0.856v-1.536H56.743zM55.737 53.824h-0.856v-1.536h0.856V53.824zM54.73 53.824h-0.856v-1.536h0.856V53.824zM54.73 53.975v1.536h-0.856v-1.536H54.73zM54.881 53.975h0.856v1.536h-0.856V53.975zM55.888 53.975h0.856v1.536h-0.856V53.975zM56.894 53.975h0.856v1.536h-0.856V53.975zM57.901 53.975h0.856v1.536h-0.856V53.975zM58.757 55.662v1.536h-0.856v-1.536H58.757zM58.757 57.349v1.536h-0.856v-1.536H58.757zM58.908 59.036h0.856v1.536h-0.856V59.036zM59.915 59.036h0.856v1.536h-0.856V59.036zM60.921 59.036h0.856v1.536h-0.856V59.036zM61.928 59.036h0.856v1.536h-0.856V59.036zM61.928 58.885v-1.536h0.856v1.536H61.928zM62.935 57.349h0.856v1.536h-0.856V57.349zM62.935 57.198v-1.536h0.856v1.536H62.935zM63.942 55.662h0.856v1.536h-0.856V55.662zM64.948 55.662h0.856v1.536h-0.856V55.662zM64.948 55.511v-1.536h0.856v1.536H64.948zM64.948 53.824v-1.536h0.856v1.536H64.948zM64.948 52.138v-1.536h0.856v1.536H64.948zM64.797 52.138h-0.856v-1.536h0.856V52.138zM63.942 50.451v-1.536h0.856v1.536H63.942zM63.942 48.764v-1.347h0.856v1.347H63.942zM63.942 46.889v-1.347h0.856v1.347H63.942zM63.942 45.391v-1.536h0.856v1.536H63.942zM63.942 43.704v-1.536h0.856v1.536H63.942zM64.948 42.168h0.856v1.536h-0.856V42.168zM65.955 42.168h0.667v1.536h-0.667V42.168zM65.955 42.017v-1.536h0.667v1.536H65.955zM65.955 40.33v-1.536h0.667v1.536H65.955zM65.955 38.643v-1.536h0.667v1.536H65.955zM65.955 36.957v-1.536h0.667v1.536H65.955zM65.955 35.27v-1.536h0.667v1.536H65.955zM65.955 33.583v-1.536h0.667v1.536H65.955zM65.955 31.896v-1.536h0.667v1.536H65.955zM65.955 30.21v-1.536h0.667v1.536H65.955zM65.955 28.523v-1.536h0.667v1.536H65.955zM65.804 28.523h-0.856v-1.536h0.856V28.523zM64.797 28.523h-0.856v-1.536h0.856V28.523zM63.791 28.523h-0.856v-1.536h0.856V28.523zM62.784 28.523h-0.856v-1.536h0.856V28.523zM61.777 28.523h-0.856v-1.536h0.856V28.523zM60.77 28.523h-0.856v-1.536h0.856V28.523zM59.764 28.523h-0.856v-1.536h0.856V28.523zM58.757 28.523h-0.856v-1.536h0.856V28.523zM57.75 28.523h-0.856v-1.536h0.856V28.523zM56.743 28.523h-0.856v-1.536h0.856V28.523zM55.737 28.523h-0.856v-1.536h0.856V28.523zM55.737 28.674v1.536h-0.856v-1.536H55.737zM55.737 30.361v1.536h-0.856v-1.536H55.737zM54.73 31.896h-0.856v-1.536h0.856V31.896zM53.723 31.896h-0.667v-1.536h0.667V31.896zM53.723 32.047v1.536h-0.667v-1.536H53.723zM53.723 33.734v1.536h-0.667v-1.536H53.723zM53.723 35.421v1.536h-0.667v-1.536H53.723zM53.723 37.108v1.536h-0.667v-1.536H53.723zM53.723 38.794v1.536h-0.667v-1.536H53.723zM53.723 40.481v1.536h-0.667v-1.536H53.723zM53.723 42.168v1.536h-0.667v-1.536H53.723zM53.874 42.168h0.856v1.536h-0.856V42.168zM54.881 42.168h0.856v1.536h-0.856V42.168zM55.737 43.855v1.536h-0.856v-1.536H55.737zM55.737 45.542v1.347h-0.856v-1.347H55.737zM55.737 47.417v1.347h-0.856v-1.347H55.737zM55.737 48.915v1.536h-0.856v-1.536H55.737zM55.737 50.602v1.536h-0.856v-1.536H55.737zM54.73 52.138h-0.856v-1.536h0.856V52.138zM53.723 52.138h-0.667v-1.536h0.667V52.138zM53.723 52.289v1.536h-0.667v-1.536H53.723zM53.723 53.975v1.536h-0.667v-1.536H53.723zM53.723 55.662v1.536h-0.667v-1.536H53.723zM53.874 55.662h0.856v1.536h-0.856V55.662zM54.881 55.662h0.856v1.536h-0.856V55.662zM55.888 55.662h0.856v1.536h-0.856V55.662zM56.894 55.662h0.856v1.536h-0.856V55.662zM57.75 57.349v1.536h-0.856v-1.536H57.75zM57.75 59.036v1.536h-0.856v-1.536H57.75zM57.75 60.723v1.536h-0.856v-1.536H57.75zM57.75 62.409v1.536h-0.856v-1.536H57.75zM56.743 63.945h-0.856v-1.536h0.856V63.945zM55.737 63.945h-0.466v-1.536h0.466V63.945zM55.888 64.096h0.856v1.347h-0.856V64.096zM56.894 64.096h0.856v1.347h-0.856V64.096zM57.901 64.096h0.856v1.347h-0.856V64.096zM57.901 63.945v-1.536h0.856v1.536H57.901zM58.908 62.258v-1.536h0.856v1.536H58.908zM59.915 60.723h0.856v1.536h-0.856V60.723zM60.921 60.723h0.856v1.536h-0.856V60.723zM61.928 62.409h0.856v1.536h-0.856V62.409zM61.928 62.258v-1.536h0.856v1.536H61.928zM62.935 60.723h0.856v1.536h-0.856V60.723zM62.935 60.572v-1.536h0.856v1.536H62.935zM63.942 59.036h0.856v1.536h-0.856V59.036zM63.942 58.885v-1.536h0.856v1.536H63.942zM64.948 57.349h0.856v1.536h-0.856V57.349zM65.955 57.349h0.667v1.536h-0.667V57.349zM65.955 57.198v-1.536h0.667v1.536H65.955zM65.955 55.511v-1.536h0.667v1.536H65.955zM65.955 53.824v-1.536h0.667v1.536H65.955zM65.955 52.138v-1.536h0.667v1.536H65.955zM65.955 50.451v-1.536h0.667v1.536H65.955zM65.804 50.451h-0.856v-1.536h0.856V50.451zM64.948 48.764v-1.347h0.856v1.347H64.948zM64.948 46.889v-1.347h0.856v1.347H64.948zM64.948 45.391v-1.536h0.856v1.536H64.948zM65.955 43.855h0.667v1.536h-0.667V43.855zM66.622 26.836h-0.667v-1.536h0.667V26.836zM65.804 26.836h-0.856v-1.536h0.856V26.836zM64.797 26.836h-0.856v-1.536h0.856V26.836zM63.791 26.836h-0.856v-1.536h0.856V26.836zM62.784 26.836h-0.856v-1.536h0.856V26.836zM61.777 26.836h-0.856v-1.536h0.856V26.836zM60.77 26.836h-0.856v-1.536h0.856V26.836zM59.764 26.836h-0.856v-1.536h0.856V26.836zM58.757 26.836h-0.856v-1.536h0.856V26.836zM57.75 26.836h-0.856v-1.536h0.856V26.836zM56.743 26.836h-0.856v-1.536h0.856V26.836zM55.737 26.836h-0.856v-1.536h0.856V26.836zM54.73 26.987v1.536h-0.856v-1.536H54.73zM54.73 28.674v1.536h-0.856v-1.536H54.73zM53.723 30.21h-0.667v-1.536h0.667V30.21zM53.056 43.855h0.667v1.536h-0.667V43.855zM53.874 43.855h0.856v1.536h-0.856V43.855zM54.73 45.542v1.347h-0.856v-1.347H54.73zM54.73 47.417v1.347h-0.856v-1.347H54.73zM54.73 48.915v1.536h-0.856v-1.536H54.73zM53.723 50.451h-0.667v-1.536h0.667V50.451zM53.056 57.349h0.667v1.536h-0.667V57.349zM53.874 57.349h0.856v1.536h-0.856V57.349zM54.881 57.349h0.856v1.536h-0.856V57.349zM55.888 57.349h0.856v1.536h-0.856V57.349zM56.743 59.036v1.536h-0.856v-1.536H56.743zM56.743 60.723v1.536h-0.856v-1.536H56.743zM55.271 68.743V67.47h0.466v1.536h-0.386C55.325 68.918 55.295 68.832 55.271 68.743zM55.888 67.319v-1.347h0.856v1.347H55.888zM56.894 65.972h0.856v1.347h-0.856V65.972zM57.901 65.972h0.856v1.347h-0.856V65.972zM58.908 65.972h0.659c0.042 0.448 0.052 0.897 0.035 1.347h-0.694V65.972zM58.908 65.443v-1.347h0.311c0.126 0.443 0.229 0.892 0.295 1.347H58.908zM59.915 62.409h0.856v1.536h-0.369c-0.165-0.155-0.326-0.313-0.486-0.473V62.409zM60.77 64.096v0.186c-0.068-0.062-0.136-0.124-0.204-0.186H60.77zM60.921 64.096h0.125 0.731v1.043c-0.291-0.233-0.577-0.472-0.856-0.719V64.096zM61.928 65.263v-1.167h0.856v1.347h-0.621C62.084 65.383 62.006 65.324 61.928 65.263zM62.935 63.945v-1.536h0.856v1.536H62.935zM63.942 62.409h0.856v1.536h-0.856V62.409zM63.942 62.258v-1.536h0.856v1.536H63.942zM64.948 60.723h0.856v1.536h-0.856V60.723zM64.948 60.572v-1.536h0.856v1.536H64.948zM65.955 59.036h0.667v1.536h-0.667V59.036zM66.622 48.764h-0.667v-1.347h0.667V48.764zM65.955 46.889v-1.347h0.667v1.347H65.955zM66.622 25.15h-0.667v-1.536h0.667V25.15zM65.804 25.15h-0.856v-1.536h0.856V25.15zM64.797 25.15h-0.856v-1.536h0.856V25.15zM63.791 25.15h-0.856v-1.536h0.856V25.15zM62.784 25.15h-0.856v-1.536h0.856V25.15zM61.777 25.15h-0.856v-1.536h0.856V25.15zM60.77 25.15h-0.856v-1.536h0.856V25.15zM59.764 25.15h-0.856v-1.536h0.856V25.15zM58.757 25.15h-0.856v-1.536h0.856V25.15zM57.75 25.15h-0.856v-1.536h0.856V25.15zM56.743 25.15h-0.856v-1.536h0.856V25.15zM55.737 25.15h-0.856v-1.536h0.856V25.15zM54.73 25.15h-0.856v-1.536h0.856V25.15zM53.723 25.15h-0.667v-1.536h0.667V25.15zM53.056 27.574v-0.587h0.667v1.536h-0.667V27.574zM53.056 45.542h0.667v1.347h-0.667V45.542zM53.723 47.417v1.347h-0.667v-1.347H53.723zM53.056 59.036h0.667v1.536h-0.667V59.036zM53.874 59.036h0.856v1.536h-0.856V59.036zM54.881 59.036h0.856v1.536h-0.64c-0.014-0.005-0.029-0.005-0.043-0.007-0.016-0.003-0.03-0.009-0.047-0.009-0.002 0-0.003 0.001-0.005 0.001-0.01 0-0.018 0.004-0.028 0.005-0.008 0.001-0.014 0.003-0.022 0.005-0.002 0.001-0.005 0.001-0.007 0.002-0.007 0.002-0.014 0.002-0.02 0.004h-0.044V59.036zM55.397 69.156h0.34v0.151c-0.09 0.026-0.178 0.057-0.269 0.082C55.444 69.312 55.42 69.234 55.397 69.156zM55.888 69.156h0.345c-0.115 0.035-0.23 0.072-0.345 0.105V69.156zM56.894 68.955V67.47h0.856v1.164C57.466 68.744 57.183 68.856 56.894 68.955zM57.901 67.47h0.856v0.758c-0.281 0.124-0.57 0.232-0.856 0.345V67.47zM58.908 67.47h0.688c-0.006 0.122-0.006 0.244-0.017 0.365-0.224 0.11-0.443 0.23-0.671 0.332V67.47zM60.079 65.745c0.002-0.013 0.008-0.024 0.008-0.038 0-0.029-0.008-0.055-0.016-0.081-0.063-0.525-0.166-1.044-0.305-1.555 0.666 0.646 1.372 1.252 2.11 1.816 0.018 0.019 0.039 0.032 0.061 0.045 0.139 0.106 0.28 0.209 0.421 0.311-0.718 0.485-1.47 0.916-2.239 1.317C60.155 66.955 60.145 66.348 60.079 65.745zM63.942 64.096h0.856v0.226c-0.283 0.253-0.561 0.511-0.856 0.749V64.096zM64.948 64.096h0.103c-0.034 0.031-0.069 0.061-0.103 0.092V64.096zM65.221 63.945h-0.273v-1.536h0.856v0.969C65.613 63.571 65.419 63.76 65.221 63.945zM65.955 62.258v-1.536h0.667v1.536H65.955zM53.723 23.463h-0.667v-1.536h0.667V23.463zM53.056 60.723h0.667v1.293c-0.067 0.08-0.128 0.165-0.196 0.243h-0.471V60.723zM53.874 61.825v-1.102h0.856v0.021C54.458 61.116 54.167 61.471 53.874 61.825zM55.271 70.469c0.856 2.402 2.094 4.623 3.694 6.627h-3.694V70.469zM68.605 70.469c0.856 2.402 2.094 4.623 3.694 6.627h-3.694V70.469zM70.863 74.084c-0.774-1.323-1.412-2.72-1.904-4.185 4.551-1.231 8.635-3.811 11.698-7.368C78.498 67.204 75.144 71.165 70.863 74.084zM57.529 74.084c-0.774-1.323-1.412-2.72-1.904-4.185 2.625-0.71 5.094-1.869 7.302-3.406 0.017-0.008 0.03-0.021 0.045-0.032 0.247-0.173 0.491-0.349 0.731-0.531 0.023-0.014 0.044-0.029 0.062-0.048 1.188-0.907 2.29-1.928 3.29-3.05 0.015-0.012 0.026-0.027 0.038-0.042 0.076-0.086 0.155-0.171 0.23-0.258C65.163 67.204 61.81 71.165 57.529 74.084zM53.056 62.409h0.328c-0.106 0.12-0.22 0.23-0.328 0.348V62.409zM52.951 63.654c0.018-0.014 0.034-0.03 0.047-0.048 0.34-0.348 0.672-0.705 0.99-1.075-2.16 4.672-5.514 8.633-9.794 11.552-0.774-1.323-1.412-2.72-1.904-4.185 1.204-0.326 2.376-0.743 3.504-1.251 0.009-0.003 0.018-0.007 0.027-0.012 1.322-0.597 2.584-1.317 3.771-2.144 0.017-0.008 0.03-0.021 0.046-0.033C50.824 65.631 51.933 64.692 52.951 63.654zM46.784 67.561c0.069-1.174-0.045-2.356-0.354-3.491 0.81 0.786 1.68 1.512 2.594 2.173C48.305 66.729 47.553 67.159 46.784 67.561zM19.351 70.46c0.005 0 0.01 0.002 0.015 0.002l0.001 0c1.121 0.164 2.255 0.261 3.399 0.261 1.014 0 2.034-0.065 3.055-0.197 5.817-0.749 11.036-3.572 14.828-7.989-3.088 6.651-8.654 11.898-15.534 14.559h-9.098c-2.475-3.098-4.544-6.533-6.106-10.235C12.789 68.755 15.999 69.967 19.351 70.46zM19.7 69.985c0.571-1.932 0.591-3.989 0.061-5.925 2.501 2.428 5.515 4.272 8.817 5.395-0.922 0.237-1.863 0.425-2.823 0.548C23.715 70.267 21.684 70.252 19.7 69.985zM88.172 70.822c-1.22 1.205-2.552 2.294-3.97 3.262-0.776-1.326-1.415-2.724-1.906-4.187 2.969-0.804 5.764-2.196 8.2-4.068C89.822 67.547 89.051 69.217 88.172 70.822zM33.902 90.39h32.196C61.115 92.383 55.686 93.492 50 93.492 44.314 93.492 38.885 92.383 33.902 90.39z" data-fill-palette-color="accent"></path></g></svg></g></svg></g></svg></g></svg></g></svg></g><defs></defs></svg><rect width="395.52" height="136.8928492282853" fill="none" stroke="none" visibility="hidden"></rect></g></svg></g></svg>